<svg width="749" height="685" viewBox="0 0 749 685" fill="none" xmlns="http://www.w3.org/2000/svg">
<path d="M726.128 269.39C713.472 250.429 696.353 235.941 675.645 226.115C665.28 221.19 654.867 216.409 644.666 211.175C639.849 208.7 637.819 205.465 640.038 198.994C650.191 169.493 651.443 139.707 640.558 109.993C629.649 80.2067 610.145 57.4152 583.038 41.7847C562.685 30.1035 541.575 19.6832 520.537 9.26286C474.021 -13.7903 416.006 9.76246 399.572 62.5778C386.727 103.855 407.859 146.559 439.098 163.95C458.083 174.513 478.035 183.268 497.609 192.713C515.767 201.492 533.996 210.128 552.177 218.907C557.939 221.69 557.395 224.926 552.177 227.638C543.323 232.206 534.421 236.631 525.354 240.818C481.789 261.159 419.335 288.899 374.59 309.62C329.845 288.923 266.777 260.873 222.882 240.39C213.862 236.202 204.913 231.777 196.058 227.186C190.84 224.521 190.32 221.286 196.082 218.455C214.239 209.7 232.492 201.087 250.649 192.285C270.224 182.84 290.153 174.061 309.137 163.522C340.399 146.155 361.509 103.45 348.664 62.1496C332.23 9.33423 274.262 -14.2186 227.746 8.83462C206.707 19.2787 185.598 29.6753 165.244 41.3565C138.114 56.987 118.634 79.7785 107.725 109.564C96.8396 139.279 98.0439 169.089 108.221 198.542C110.44 205.037 108.41 208.296 103.593 210.77C93.3923 215.98 83.0029 220.786 72.6372 225.663C51.882 235.512 34.7868 249.977 22.1307 268.962C3.12286 297.463 -3.88996 328.962 2.06031 363.269C8.19948 398.336 25.2475 426.528 54.503 446.298C69.5203 456.48 86.0489 464.427 101.893 473.324C105.93 475.608 111.338 476.631 108.551 483.554C99.3662 506.441 97.5716 530.232 102.459 554.165C109.874 590.494 128.999 619.566 160.616 638.693C183.496 652.54 207.746 664.031 231.476 676.402C248.808 685.442 267.934 686.703 285.666 681.493C313.033 673.428 333.292 656.418 343.304 627.393C356.881 587.948 337.731 545.196 302.974 526.853C270.531 509.748 238.229 492.404 205.881 475.109C199.317 471.564 192.894 467.805 185.22 463.475C188.431 460.668 190.108 458.455 192.327 457.432C218.23 445.204 244.18 433.166 270.177 421.128C298.063 408.257 344.036 388.915 373.575 375.592C403.066 388.891 449.818 408.542 477.988 421.603C503.985 433.594 529.935 445.68 555.837 457.86C558.057 458.883 559.733 461.12 562.992 463.903C555.294 468.233 548.871 471.992 542.307 475.537C509.959 492.833 477.657 510.224 445.214 527.282C410.457 545.6 391.331 588.376 404.884 627.821C414.919 656.846 435.132 673.856 462.522 681.921C480.254 687.131 499.357 685.918 516.712 676.83C540.442 664.435 564.692 652.944 587.572 639.122C619.212 619.994 638.314 590.946 645.729 554.593C650.616 530.66 648.798 506.869 639.637 483.983C636.85 477.036 642.258 476.013 646.295 473.753C662.163 464.879 678.691 456.909 693.732 446.726C722.964 426.932 740.059 398.764 746.151 363.697C752.172 329.414 745.16 297.915 726.128 269.39ZM475.626 127.146C465.308 122.197 455.367 116.654 449.346 105.972C443.16 95.0046 444.553 76.1385 452.982 64.6952C461.247 53.466 478.909 46.4715 491.565 51.7768C509.368 59.2471 526.747 67.9307 543.677 77.2805C555.577 83.8229 568.186 90.5795 577.419 100.239C599.095 122.959 604.36 150.484 593.522 183.673C584.502 179.176 576.356 174.989 568.092 171.063C537.254 156.385 506.37 141.92 475.626 127.146ZM170.911 99.8103C180.143 90.175 192.752 83.3947 204.653 76.8285C221.606 67.5263 238.985 58.7951 256.765 51.3248C269.421 46.0433 287.083 53.0378 295.347 64.267C303.777 75.7341 305.17 94.5763 298.984 105.544C292.962 116.202 283.022 121.769 272.703 126.718C241.96 141.492 211.075 155.956 180.262 170.611C171.997 174.537 163.827 178.748 154.855 183.22C143.97 150.032 149.235 122.483 170.911 99.8103ZM192.422 523.88C220.591 538.868 248.713 553.903 276.835 568.892C292.467 577.242 299.645 587.972 298.866 602.389C297.992 618.376 286.682 631.556 270.389 634.364C263.825 635.482 255.844 632.984 249.563 629.915C228.808 619.708 208.36 608.812 188.124 597.536C156.035 579.693 140.994 538.273 154.359 503.872C167.11 510.581 179.789 517.171 192.422 523.88ZM289.279 357.773C271.971 365.743 254.522 373.499 237.261 381.516C214.546 392.055 191.69 402.333 169.376 413.681C159.506 418.701 150.982 426.29 141.538 432.238C139.318 433.665 135.209 434.474 133.155 433.404C114.643 423.435 95.3285 414.49 78.3041 402.285C57.2184 387.131 45.0581 356.203 49.875 329.652C55.4239 299.057 73.7705 279.192 100.925 266.345C112.235 260.968 123.38 255.187 134.714 249.906C136.343 249.145 139.294 249.311 140.711 250.334C181.844 280.643 230.06 296.773 275.442 318.494C288.783 324.894 302.36 330.747 315.725 336.98C317.519 337.836 318.653 337.408 325.193 340.715C312.82 346.663 299.598 352.991 289.279 357.773ZM560.205 597.988C539.97 609.217 519.522 620.113 498.766 630.319C492.509 633.388 484.505 635.91 477.988 634.768C461.672 631.961 450.361 618.781 449.464 602.793C448.685 588.424 455.863 577.67 471.494 569.344C499.616 554.308 527.739 539.296 555.908 524.284C568.517 517.575 581.22 510.985 593.971 504.276C607.382 538.749 592.294 580.121 560.205 597.988ZM670.026 402.737C653.001 414.918 633.71 423.863 615.174 433.856C613.12 434.974 609.012 434.117 606.792 432.69C597.347 426.742 588.823 419.153 578.953 414.133C556.663 402.761 533.783 392.531 511.092 381.968C493.784 373.951 476.382 366.219 459.074 358.225C448.756 353.467 435.509 347.091 423.113 341.191C429.677 337.884 430.787 338.312 432.581 337.456C445.993 331.222 459.57 325.37 472.864 318.994C518.27 297.226 566.486 281.143 607.595 250.786C609.012 249.763 611.963 249.597 613.592 250.358C624.926 255.687 636.071 261.444 647.429 266.797C674.536 279.668 692.906 299.533 698.431 330.104C703.248 356.702 691.088 387.606 670.026 402.737Z" fill="#FF5400"/>
</svg>
